# xmcd CD database file
#
# Track frame offsets:
#	182
#	16817
#	34732
#	48357
#
# Disc length: 888 seconds
#
# Revision: 3
# Processed by: cddbd v1.5.2PL0 Copyright (c) Steve Scherf et al.
# Submitted via: CDex 1.77
#
DISCID=25037604
DTITLE=MC Lyte - Keep On Keepin On
DYEAR=1997
DGENRE=Pop
TTITLE0=Keep On Keepin On feat Xscape (the Keep It Lyte Edit)
TTITLE1=Keep On Keepin On feat Xscape (lp version - dirty)
TTITLE2=cha cha cha (LP Version - Dirty)
TTITLE3=I Go On (Radio Edit)
EXTD=YEAR: 1997
EXTT0=
EXTT1=
EXTT2=
EXTT3=
PLAYORDER=
